HIERARCHY
ROOT Hips
{
	OFFSET 55.660801 -14.017609 55.105698
	CHANNELS 6 Xposition Yposition Zposition Xrotation Yrotation Zrotation
	JOINT spine
	{
		OFFSET 0.000000 -0.467661 8.132488
		CHANNELS 3 Xrotation Yrotation Zrotation
		JOINT spine1
		{
			OFFSET 0.000000 -0.000002 10.349804
			CHANNELS 3 Xrotation Yrotation Zrotation
			JOINT spine2
			{
				OFFSET 0.000000 -0.000001 9.916992
				CHANNELS 3 Xrotation Yrotation Zrotation
				JOINT Neck
				{
					OFFSET 0.000000 -1.213904 25.460999
					CHANNELS 3 Xrotation Yrotation Zrotation
					JOINT Head
					{
						OFFSET 0.000000 -0.000001 7.692451
						CHANNELS 3 Xrotation Yrotation Zrotation
						End Site
						{
							OFFSET 0.000000 6.140627 18.619995
						}
					}
				}
				JOINT RightShoulder
				{
					OFFSET -4.175751 0.581443 10.709602
					CHANNELS 3 Xrotation Yrotation Zrotation
					JOINT RightArm
					{
						OFFSET 0.000000 -0.000002 14.046600
						CHANNELS 3 Xrotation Yrotation Zrotation
						JOINT RightArmRoll
						{
							OFFSET 0.000000 -0.000002 7.090988
							CHANNELS 3 Xrotation Yrotation Zrotation
							JOINT RightForeArm
							{
								OFFSET 0.000000 -0.000003 20.653503
								CHANNELS 3 Xrotation Yrotation Zrotation
								JOINT RightForeArmRoll
								{
									OFFSET 0.000000 -0.000002 7.957184
									CHANNELS 3 Xrotation Yrotation Zrotation
									JOINT RightHand
									{
										OFFSET 0.000000 -0.000002 15.968292
										CHANNELS 3 Xrotation Yrotation Zrotation
										End Site
										{
											OFFSET 0.000000 0.000000 0.100006
										}
									}
								}
							}
						}
					}
				}
				JOINT LeftShoulder
				{
					OFFSET 4.175751 0.581443 10.709602
					CHANNELS 3 Xrotation Yrotation Zrotation
					JOINT LeftArm
					{
						OFFSET 0.000000 -0.000002 14.046600
						CHANNELS 3 Xrotation Yrotation Zrotation
						JOINT LeftArmRoll
						{
							OFFSET 0.000000 -0.000002 7.090988
							CHANNELS 3 Xrotation Yrotation Zrotation
							JOINT LeftForeArm
							{
								OFFSET 0.000000 -0.000003 20.653503
								CHANNELS 3 Xrotation Yrotation Zrotation
								JOINT LeftForeArmRoll
								{
									OFFSET 0.000000 -0.000002 7.957184
									CHANNELS 3 Xrotation Yrotation Zrotation
									JOINT LeftHand
									{
										OFFSET 0.000000 -0.000002 15.968292
										CHANNELS 3 Xrotation Yrotation Zrotation
										End Site
										{
											OFFSET 0.000000 0.000000 0.100006
										}
									}
								}
							}
						}
					}
				}
			}
		}
	}
	JOINT RightUpLeg
	{
		OFFSET -7.208340 1.108840 -1.321819
		CHANNELS 3 Xrotation Yrotation Zrotation
		JOINT RightUpLegRoll
		{
			OFFSET 0.000000 -0.000003 18.723804
			CHANNELS 3 Xrotation Yrotation Zrotation
			JOINT RightLeg
			{
				OFFSET 0.000000 0.000004 -23.186604
				CHANNELS 3 Xrotation Yrotation Zrotation
				JOINT RightLegRoll
				{
					OFFSET 0.000000 -0.000004 23.262402
					CHANNELS 3 Xrotation Yrotation Zrotation
					JOINT RightFoot
					{
						OFFSET 0.000000 -0.000004 19.362099
						CHANNELS 3 Xrotation Yrotation Zrotation
						JOINT RightToeBase
						{
							OFFSET 0.000000 -0.000002 16.185699
							CHANNELS 3 Xrotation Yrotation Zrotation
							End Site
							{
								OFFSET 0.006859 0.903521 7.838631
							}
						}
					}
				}
			}
		}
	}
	JOINT LeftUpLeg
	{
		OFFSET 7.208340 1.108840 -1.321819
		CHANNELS 3 Xrotation Yrotation Zrotation
		JOINT LeftUpLegRoll
		{
			OFFSET 0.000000 -0.000003 18.723904
			CHANNELS 3 Xrotation Yrotation Zrotation
			JOINT LeftLeg
			{
				OFFSET 0.000000 -0.000004 23.186501
				CHANNELS 3 Xrotation Yrotation Zrotation
				JOINT LeftLegRoll
				{
					OFFSET 0.000000 -0.000004 23.477501
					CHANNELS 3 Xrotation Yrotation Zrotation
					JOINT LeftFoot
					{
						OFFSET 0.000000 -0.000004 19.147003
						CHANNELS 3 Xrotation Yrotation Zrotation
						JOINT LeftToeBase
						{
							OFFSET 0.000000 -0.000002 16.185699
							CHANNELS 3 Xrotation Yrotation Zrotation
							End Site
							{
								OFFSET -0.030746 0.903521 7.838623
							}
						}
					}
				}
			}
		}
	}
}
MOTION
Frames: 5
Frame Time: 0.041667
55.202202 -23.424812 61.974194 17.771763 -1.868250 -1.915165 2.942575 -0.967504 0.075477 9.890957 -1.926545 0.208792 11.536388 -1.923933 0.231858 5.105382 6.591161 -4.617401 18.057864 -0.152819 -5.483078 -13.997440 -43.167222 -15.970241 -44.651962 -142.846426 -69.387557 -0.000001 -0.000000 -0.000004 70.172762 -8.413066 2.258857 -0.000002 0.000001 -3.006569 -5.000174 -7.999811 0.000022 -8.549457 56.810860 9.943853 -53.381774 134.760575 72.348642 0.000005 0.000005 -0.000008 58.811501 3.874902 -1.482187 0.000002 -0.000012 3.006663 -5.000224 7.998946 -0.000135 -96.807331 -171.103943 2.008440 -179.999991 0.000004 -0.864998 93.665717 0.120625 -3.614857 0.000003 0.000003 1.903830 71.984231 7.287103 0.801911 25.456959 -7.355614 0.000001 -95.413727 170.596050 -4.431989 -0.000021 -0.000004 -1.172720 -88.750727 -0.616528 2.687919 0.000006 0.000003 -2.415000 75.355763 -6.964505 -1.396491 25.456878 7.354377 -0.004936 
55.164799 -23.369909 61.867390 17.639838 -1.873578 -1.911410 2.943813 -0.969558 0.076483 9.893472 -1.931013 0.211300 11.538923 -1.928363 0.234419 5.161053 6.600752 -4.627431 18.059276 -0.162957 -5.488334 -14.017816 -43.170477 -15.996937 -44.671981 -142.869471 -69.395193 -0.000002 -0.000001 -0.000003 70.189162 -8.405417 2.250841 -0.000002 -0.000001 -3.006570 -5.000174 -7.999814 0.000022 -8.519025 56.808230 9.907332 -53.420180 134.791010 72.433753 0.000006 0.000005 -0.000010 58.792301 3.874537 -1.488330 0.000002 -0.000011 3.006661 -5.000225 7.998942 -0.000138 -96.831722 -171.104517 1.994573 -179.999991 0.000005 -0.864998 93.591118 0.155993 -3.593896 0.000003 0.000003 1.907600 71.905725 7.283854 0.819518 25.456955 -7.355615 0.000000 -95.434873 170.617989 -4.433594 -0.000020 -0.000003 -1.175840 -88.834301 -0.645161 2.661661 0.000006 0.000003 -2.418479 75.287037 -6.963529 -1.406317 25.456880 7.354375 -0.004936 
55.176796 -23.297312 61.778988 17.505408 -1.878432 -1.908425 2.945638 -0.971515 0.077364 9.897132 -1.935188 0.213512 11.542657 -1.932502 0.236684 5.214026 6.608807 -4.637199 18.062384 -0.172597 -5.493442 -14.037832 -43.176375 -16.023205 -44.695098 -142.892052 -69.407208 -0.000002 -0.000001 -0.000002 70.203894 -8.398794 2.243519 -0.000001 0.000000 -3.006571 -5.000174 -7.999812 0.000023 -8.489300 56.805847 9.871676 -53.459720 134.822224 72.515934 0.000005 0.000005 -0.000009 58.771988 3.875095 -1.494301 0.000003 -0.000014 3.006660 -5.000225 7.998946 -0.000135 -96.851242 -171.105296 1.982203 -179.999991 0.000005 -0.865995 93.518212 0.191162 -3.571857 0.000004 0.000003 1.911310 71.827751 7.280725 0.836805 25.456957 -7.355614 -0.000001 -95.451668 170.638712 -4.434408 -0.000020 -0.000004 -1.178930 -88.915170 -0.673547 2.635774 0.000006 0.000003 -2.421809 75.217643 -6.962668 -1.415698 25.456878 7.354375 -0.004936 
55.235500 -23.228708 61.684792 17.368271 -1.882764 -1.906410 2.948135 -0.973340 0.078098 9.902163 -1.938961 0.215369 11.547680 -1.936249 0.238588 5.263490 6.615091 -4.646546 18.067602 -0.181596 -5.498280 -14.057150 -43.185145 -16.048684 -44.720466 -142.915698 -69.422282 -0.000002 -0.000001 -0.000003 70.217029 -8.393323 2.236972 -0.000002 0.000000 -3.006570 -5.000173 -7.999813 0.000021 -8.460977 56.803364 9.837688 -53.501422 134.853821 72.596209 0.000006 0.000005 -0.000006 58.750787 3.876717 -1.500015 0.000004 -0.000013 3.006662 -5.000227 7.998948 -0.000136 -96.865306 -171.106334 1.970467 -179.999991 0.000005 -0.865995 93.447199 0.225988 -3.550791 0.000004 0.000004 1.914999 71.750645 7.277742 0.853253 25.456953 -7.355616 0.000001 -95.463601 170.657918 -4.436347 -0.000019 -0.000003 -1.181980 -88.993123 -0.701609 2.610260 0.000005 0.000003 -2.424980 75.147531 -6.962008 -1.424548 25.456877 7.354376 -0.004937 
55.225796 -23.162710 61.593090 17.228230 -1.886499 -1.905579 2.951440 -0.974996 0.078663 9.908790 -1.942232 0.216813 11.554307 -1.939506 0.240073 5.308652 6.619364 -4.655287 18.075510 -0.189819 -5.502748 -14.075598 -43.197316 -16.073170 -44.748944 -142.939863 -69.441673 -0.000001 -0.000001 -0.000003 70.228729 -8.389139 2.231290 -0.000002 0.000000 -3.006570 -5.000173 -7.999812 0.000021 -8.434809 56.800625 9.806240 -53.544032 134.887207 72.671949 0.000006 0.000004 -0.000006 58.728822 3.879556 -1.505387 -0.000002 -0.000012 3.006661 -5.000225 7.998942 -0.000137 -96.873557 -171.107495 1.960186 -179.999991 0.000005 -0.865995 93.378084 0.260427 -3.529681 0.000004 0.000003 1.918669 71.674359 7.275070 0.868899 25.456950 -7.355614 0.000000 -95.470287 170.675294 -4.439240 -0.000021 -0.000004 -1.185010 -89.067825 -0.729387 2.585234 0.000005 0.000003 -2.427980 75.076777 -6.961534 -1.432664 25.456875 7.354377 -0.004936 
